<?xml version="1.0" encoding="utf-8"?>
<!-- Generator: Adobe Illustrator 22.1.0, SVG Export Plug-In . SVG Version: 6.00 Build 0)  -->
<svg version="1.1" id="Layer_1" xmlns="http://www.w3.org/2000/svg" xmlns:xlink="http://www.w3.org/1999/xlink" x="0px" y="0px"
	 viewBox="0 0 600 196" style="enable-background:new 0 0 600 196;" xml:space="preserve">
<style type="text/css">
	.st0{fill:#231F20;}
	.st1{fill:#30EEC6;}
</style>
<path class="st0" d="M266.5,142.3c-3.6,0.6-8.9,1.3-15.9,1.3c-11.2,0-26.7-1.4-26.7-26.9V84.2H212v-18h11.9V43.6h23.7v22.6h17.2v18
	h-17.2v27.2c0,11.2,4.4,13,10.3,13c3,0,6.4-0.2,8.6-0.5V142.3z M329.7,104.2c0-10.4-7.2-19.4-18-19.4c-10.8,0-18,9-18,19.4
	c0,10.6,7.2,19.4,18,19.4C322.5,123.7,329.7,114.8,329.7,104.2z M353.6,66.2v76.2h-23.9v-10.7c-3.6,6.9-13.3,12.6-23,12.6
	c-21.7,0-36.7-17.2-36.7-40s15-40,36.7-40c9.7,0,19.4,5.8,23,12.8V66.2H353.6z M391.9,104.2c0,10.6,7.2,19.4,18.1,19.4
	c10.6,0,17.8-8.8,17.8-19.4s-7.2-19.4-17.8-19.4C399,84.8,391.9,93.7,391.9,104.2z M391.9,77.1c3.6-7,13.3-12.8,23.1-12.8
	c21.7,0,36.7,17.2,36.7,40s-15,40-36.7,40c-9.8,0-19.5-5.8-23.1-12.8v45.3H368V66.2h23.9V77.1z M485.9,142.3h23.9V66.2h-23.9V142.3z
	 M497.8,25.6c8.7,0,15.5,6.8,15.5,15.3c0,8.4-6.7,15.3-15.5,15.3c-8.6,0-15.3-7-15.3-15.3C482.5,32.4,489.2,25.6,497.8,25.6z
	 M524.2,66.2h23.9v11.1c4.2-8.2,13-13,24.7-13c9.7,0,17,3.3,21.1,8.7c4.7,5.8,5.9,13.3,5.9,24.2v45.2h-23.9v-39
	c0-10.9-3.3-18.5-13.3-18.5c-9.7,0-14.5,7.6-14.5,19.3v38.2h-23.9V66.2z"/>
<path id="Combined-Shape" class="st1" d="M128.2,55.6l-74.1,75c-3.6-4.7-6.4-9.9-8.3-15.6l67-67.7C118.3,49.1,123.5,52,128.2,55.6z
	 M126.8,78l11.6-11.7c6.5,8.9,10.4,19.8,10.4,31.7c0,0.7-0.1,1.4-0.1,2.1L126.8,78z M43,97.7l52.7-53.3C66.6,44.6,43.1,68.4,43,97.7
	z M116.9,88l28.5,28.8c-2.1,5.6-5,10.7-8.7,15.2l-31.7-32L116.9,88z M73.4,132l19.1,19.3c-10.5-0.7-20.1-4.4-28-10.3L73.4,132z
	 M95.2,110l31.3,31.6c-4.8,3.5-10.2,6.1-16,7.8L83.3,122L95.2,110z M95.9,23.6c-40.5,0-73.5,33.4-73.5,74.4c0,41,33,74.4,73.5,74.4
	c40.5,0,73.5-33.4,73.5-74.4C169.4,56.9,136.4,23.6,95.9,23.6 M95.9,195C43,195,0,151.5,0,98c0-53.5,43-97,95.9-97
	c52.9,0,95.9,43.5,95.9,97C191.8,151.5,148.8,195,95.9,195"/>
</svg>
