<?xml version="1.0" standalone="no"?>
<!DOCTYPE svg PUBLIC "-//W3C//DTD SVG 20010904//EN"
 "http://www.w3.org/TR/2001/REC-SVG-20010904/DTD/svg10.dtd">
<svg version="1.0" xmlns="http://www.w3.org/2000/svg"
 width="672.000000pt" height="672.000000pt" viewBox="0 0 672.000000 672.000000"
 preserveAspectRatio="xMidYMid meet">
<metadata>
Created by potrace 1.11, written by Peter Selinger 2001-2013
</metadata>
<g transform="translate(0.000000,672.000000) scale(0.100000,-0.100000)"
fill="#000000" stroke="none">
<path d="M3470 6287 c-3 -3 -36 -7 -75 -11 -105 -10 -312 -62 -398 -100 -125
-55 -180 -82 -246 -122 -362 -220 -634 -575 -746 -973 -50 -178 -60 -266 -59
-491 1 -149 6 -194 38 -355 49 -245 221 -560 420 -773 170 -181 443 -352 686
-430 81 -26 122 -37 230 -59 62 -12 146 -18 275 -18 168 1 239 7 340 31 39 9
79 18 89 20 26 5 146 43 171 54 11 5 54 25 95 43 291 131 561 374 732 657 51
85 110 208 133 278 9 26 18 54 22 62 3 8 7 20 8 26 2 6 10 38 20 70 35 121 50
244 50 424 0 250 -31 411 -120 630 -141 346 -396 637 -723 825 -120 68 -321
149 -424 169 -13 2 -45 9 -73 15 -27 6 -66 13 -85 16 -43 7 -354 17 -360 12z
m339 -404 c544 -100 952 -511 1046 -1053 15 -86 20 -265 10 -354 -64 -575
-519 -1042 -1095 -1125 -67 -10 -297 -8 -360 3 -165 28 -345 93 -465 169 -269
169 -470 428 -560 721 -45 145 -54 218 -51 401 2 94 6 181 10 195 46 193 88
305 161 429 28 47 58 95 67 106 122 149 181 207 303 296 122 89 341 182 480
205 22 3 60 10 85 14 74 12 287 8 369 -7z"/>
<path d="M3398 5529 c-391 -82 -675 -403 -714 -806 -3 -35 -3 -63 0 -63 8 0
886 877 886 885 0 10 -85 2 -172 -16z"/>
<path d="M3296 4931 l-578 -578 17 -39 c30 -68 67 -138 98 -182 l29 -44 639
639 638 638 -27 23 c-23 19 -218 122 -232 122 -3 0 -265 -260 -584 -579z"/>
<path d="M4216 5064 l-96 -97 92 -92 c51 -51 137 -137 192 -191 l99 -99 -6 90
c-3 50 -9 101 -12 115 -3 14 -8 38 -10 54 -15 81 -123 304 -152 313 -6 2 -55
-39 -107 -93z"/>
<path d="M3862 4687 l-102 -103 275 -277 274 -278 36 48 c19 26 54 85 77 131
l42 83 -250 249 -249 250 -103 -103z"/>
<path d="M3482 4308 l-102 -104 232 -238 233 -238 70 27 c39 14 101 44 139 67
l68 40 -86 87 c-47 47 -168 171 -268 274 l-183 188 -103 -103z"/>
<path d="M3137 3955 l-77 -73 29 -21 c90 -64 269 -130 399 -147 l53 -7 -161
159 c-89 88 -162 160 -164 161 -1 1 -36 -31 -79 -72z"/>
<path d="M4869 3018 c-54 -14 -130 -77 -157 -131 -68 -131 -16 -290 115 -357
185 -94 411 55 390 256 -18 171 -178 278 -348 232z"/>
<path d="M205 2538 l0 -193 -103 -3 -102 -3 0 -154 0 -155 103 0 102 0 1 -323
c1 -298 3 -356 21 -426 35 -142 140 -234 299 -262 62 -11 305 -7 359 5 11 2
28 5 38 5 15 1 17 15 17 159 l0 157 -107 0 c-133 1 -165 14 -196 83 -19 44
-21 66 -22 325 l-1 277 148 0 148 0 0 155 0 154 -147 3 -148 3 -1 180 c-1 99
-2 186 -3 193 -1 9 -49 12 -204 12 l-202 0 0 -192z"/>
<path d="M1535 2363 c-61 -8 -142 -35 -202 -68 -165 -90 -268 -234 -320 -449
-9 -40 -11 -243 -2 -292 58 -314 280 -521 579 -541 165 -10 323 58 418 181
l22 29 0 -90 0 -90 203 1 202 1 3 647 2 646 -205 0 -205 0 0 -89 0 -90 -32 38
c-50 57 -78 79 -138 111 -95 51 -210 70 -325 55z m325 -379 c63 -34 105 -81
139 -154 21 -46 26 -69 25 -140 0 -71 -4 -95 -28 -145 -99 -217 -368 -249
-523 -62 -6 8 -22 36 -35 63 -19 41 -23 65 -23 144 1 83 4 102 28 152 34 70
108 139 174 161 72 25 177 17 243 -19z"/>
<path d="M3426 2359 c-85 -20 -182 -77 -240 -139 l-56 -61 0 89 0 89 -205 0
-205 0 0 -953 0 -954 205 0 205 0 0 384 0 384 63 -62 c102 -102 225 -149 370
-141 45 3 89 7 97 8 221 50 385 202 460 426 29 87 35 135 34 271 -1 130 -23
229 -74 331 -37 73 -48 87 -130 169 -76 76 -158 123 -262 149 -81 20 -201 25
-262 10z m139 -370 c199 -93 246 -390 88 -553 -70 -72 -183 -104 -283 -82
-247 57 -322 408 -125 589 78 72 221 92 320 46z"/>
<path d="M6155 2363 c-115 -17 -231 -81 -286 -158 l-34 -47 -3 89 -3 90 -204
1 -205 0 0 -654 0 -654 205 0 205 0 1 353 c0 193 2 363 5 377 2 14 6 36 8 50
11 75 80 167 145 192 38 14 117 17 159 6 76 -21 131 -85 148 -173 12 -65 12
-66 13 -442 l1 -363 206 0 205 0 -4 483 c-2 265 -6 491 -9 502 -31 108 -43
139 -70 177 -59 84 -132 133 -239 161 -53 14 -183 19 -244 10z"/>
<path d="M4740 1670 l0 -660 210 0 210 0 0 659 0 659 -210 0 -210 1 0 -659z"/>
</g>
</svg>
