<?xml version="1.0" encoding="UTF-8"?>
<svg width="278px" height="278px" viewBox="0 0 278 278" version="1.1" xmlns="http://www.w3.org/2000/svg" xmlns:xlink="http://www.w3.org/1999/xlink">
    <!-- Generator: Sketch 43.2 (39069) - http://www.bohemiancoding.com/sketch -->
    <title>juv-/juv</title>
    <desc>Created with Sketch.</desc>
    <defs>
        <polygon id="path-1" points="0.876 225 129.153 225 129.153 0.5259 0.876 0.5259 0.876 225"></polygon>
        <polygon id="path-3" points="0 170.1648 0 0.0178 92.4540476 0.0178 92.4540476 170.1648 3.18497941e-16 170.1648"></polygon>
    </defs>
    <g id="Page-1" stroke="none" stroke-width="1" fill="none" fill-rule="evenodd">
        <g id="juv-/juv">
            <g id="juv/juv" transform="translate(63.000000, 1.000000)">
                <path d="M9.2016,0.9993 L8.7026,33.9353 L17.4866,34.0683 L17.9846,1.1323 L9.2016,0.9993 Z M25.1706,34.1853 L33.9546,34.3183 L34.4526,1.3823 L25.6696,1.2493 L25.1706,34.1853 Z M41.6396,34.4343 L50.4216,34.5673 L50.9206,1.6313 L42.1376,1.4993 L41.6396,34.4343 Z M58.1066,34.6833 L66.8906,34.8163 L67.3886,1.8813 L58.6056,1.7483 L58.1066,34.6833 Z M74.5746,34.9333 L83.3576,35.0663 L83.8566,2.1303 L75.0736,1.9973 L74.5746,34.9333 Z M91.0426,35.1823 L99.8266,35.3153 L100.3246,2.3803 L91.5416,2.2463 L91.0426,35.1823 Z M107.5116,35.4323 L116.2946,35.5643 L116.7926,2.6293 L108.0096,2.4973 L107.5116,35.4323 Z M123.9786,35.6823 L132.7616,35.8153 L133.2606,2.8793 L124.4786,2.7473 L123.9786,35.6823 Z M140.4466,35.9303 L149.2296,36.0633 L149.7286,3.1283 L140.9466,2.9943 L140.4466,35.9303 Z" id="Fill-1" fill="#231F1F"></path>
                <g id="Group-8" transform="translate(0.000000, 51.591000)">
                    <g id="Group-4" transform="translate(22.000000, 0.000000)">
                        <mask id="mask-2" fill="white">
                            <use xlink:href="#path-1"></use>
                        </mask>
                        <g id="Clip-3"></g>
                        <path d="M96.214,0.5259 C96.214,66.1549 78.983,119.3289 44.999,158.5699 C27.772,178.4629 10.334,189.5709 0.876,194.6699 L13.974,225.0009 C25.534,219.0739 47.121,205.9139 68.476,181.7599 C96.157,150.4519 129.153,93.5939 129.153,0.5259 L96.214,0.5259 Z" id="Fill-2" fill="#231F1F" mask="url(#mask-2)"></path>
                    </g>
                    <g id="Group-7" transform="translate(0.000000, 1.000000)">
                        <mask id="mask-4" fill="white">
                            <use xlink:href="#path-3"></use>
                        </mask>
                        <g id="Clip-6"></g>
                        <path d="M92.3927,15.7778 L91.7137,0.0178 L6.7577,0.0178 L6.7577,32.9578 L58.9137,32.9578 C58.1087,42.4918 56.2677,55.5008 52.1357,69.5598 C42.4847,102.3938 24.9657,125.9818 -0.0003,139.8238 L13.1017,170.1648 C47.0147,152.3848 71.3457,121.0098 83.7377,78.8488 C93.5447,45.4868 92.4447,16.9748 92.3927,15.7778" id="Fill-5" fill="#231F1F" mask="url(#mask-4)"></path>
                    </g>
                </g>
            </g>
        </g>
    </g>
</svg>