<?xml version="1.0" encoding="UTF-8"?>
<svg width="278px" height="278px" viewBox="0 0 278 278" version="1.1" xmlns="http://www.w3.org/2000/svg" xmlns:xlink="http://www.w3.org/1999/xlink">
    <!-- Generator: Sketch 43.2 (39069) - http://www.bohemiancoding.com/sketch -->
    <title>mci/mci</title>
    <desc>Created with Sketch.</desc>
    <defs>
        <path d="M0.910748858,0.956121429 C2.74131707,33.5991754 22.8183305,60.5830249 49.6428571,68.8218786 C76.4673838,60.5830249 96.5443972,33.5991754 98.3749654,0.956121429 L0.910748858,0.956121429 L0.910748858,0.956121429 Z" id="path-1"></path>
        <polygon id="path-3" points="0 278 278 278 278 0 0 0"></polygon>
    </defs>
    <g id="Page-1" stroke="none" stroke-width="1" fill="none" fill-rule="evenodd">
        <g id="mci/mci">
            <g>
                <g id="Group-15">
                    <path d="M139,26.4522957 C201.157821,26.4522957 251.547307,76.8417814 251.547307,138.999603 C251.547307,201.158417 201.157821,251.547903 139,251.547903 C76.8421786,251.547903 26.4526929,201.158417 26.4526929,138.999603 C26.4526929,76.8417814 76.8421786,26.4522957 139,26.4522957" id="Fill-1" fill="#FFFFFF"></path>
                    <path d="M139,12.3011029 C105.157471,12.3011029 73.3403714,25.4792957 49.4105286,49.4101314 C25.4796929,73.3409671 12.3015,105.157074 12.3015,138.999603 C12.3015,172.842131 25.4796929,204.659231 49.4105286,228.590067 C73.3403714,252.51991 105.157471,265.699096 139,265.699096 C172.842529,265.699096 204.659629,252.51991 228.589471,228.590067 C252.520307,204.659231 265.6985,172.842131 265.6985,138.999603 C265.6985,105.157074 252.520307,73.3409671 228.589471,49.4101314 C204.659629,25.4792957 172.842529,12.3011029 139,12.3011029 M139,26.4522957 C201.157821,26.4522957 251.547307,76.8417814 251.547307,138.999603 C251.547307,201.158417 201.157821,251.547903 139,251.547903 C76.8421786,251.547903 26.4526929,201.158417 26.4526929,138.999603 C26.4526929,76.8417814 76.8421786,26.4522957 139,26.4522957" id="Fill-3" fill="#69ACE1"></path>
                    <path d="M139,0 C101.871114,0 66.9652357,14.4589786 40.7121071,40.7121071 C14.4579857,66.9652357 0,101.871114 0,139 C0,176.128886 14.4579857,211.034764 40.7121071,237.287893 C66.9652357,263.541021 101.871114,278 139,278 C176.128886,278 211.034764,263.541021 237.287893,237.287893 C263.542014,211.034764 278,176.128886 278,139 C278,101.871114 263.542014,66.9652357 237.287893,40.7121071 C211.034764,14.4589786 176.128886,0 139,0 M139,14.1511929 C207.951943,14.1511929 263.848807,70.0480571 263.848807,139 C263.848807,207.951943 207.951943,263.848807 139,263.848807 C70.0480571,263.848807 14.1511929,207.951943 14.1511929,139 C14.1511929,70.0480571 70.0480571,14.1511929 139,14.1511929" id="Fill-5" fill="#002660"></path>
                    <path d="M139,214.94682 C97.1222786,214.94682 63.0533786,180.87792 63.0533786,139.000199 C63.0533786,97.1224771 97.1222786,63.0535771 139,63.0535771 C180.877721,63.0535771 214.946621,97.1224771 214.946621,139.000199 C214.946621,180.87792 180.877721,214.94682 139,214.94682" id="Fill-7" fill="#69ACE1"></path>
                    <path d="M139,55.9771864 C93.2213429,55.9771864 55.9772857,93.2212436 55.9772857,138.999901 C55.9772857,184.779551 93.2213429,222.022615 139,222.022615 C184.778657,222.022615 222.022714,184.779551 222.022714,138.999901 C222.022714,93.2212436 184.778657,55.9771864 139,55.9771864 M139,70.1293721 C177.03735,70.1293721 207.870529,100.963544 207.870529,138.999901 C207.870529,177.037251 177.03735,207.870429 139,207.870429 C100.96265,207.870429 70.1294714,177.037251 70.1294714,138.999901 C70.1294714,100.963544 100.96265,70.1293721 139,70.1293721" id="Fill-9" fill="#002660"></path>
                    <path d="M137.615461,213.323697 C106.880575,203.885597 85.4150036,172.11814 85.4150036,136.071469 C85.4150036,127.717569 86.8953536,97.1733114 90.3346107,87.3162257 L90.6751607,86.3422329 L91.3900179,85.5985829 C99.4877607,77.18809 124.160261,74.2055471 142.827961,74.2055471 C153.035525,74.2055471 177.692139,75.11699 186.168161,83.5711686 L186.910818,84.3128329 L187.269239,85.2967543 C190.985504,95.5053114 192.584996,127.351204 192.584996,136.071469 C192.584996,172.11814 171.119425,203.885597 140.384539,213.323697 L139.000496,213.749633 L137.615461,213.323697 Z" id="Fill-11" fill="#FFFFFF"></path>
                    <path d="M142.826968,69.4873907 C132.863646,69.4873907 99.4619464,70.4137264 87.9924607,82.3280121 L86.5617536,83.8143193 L85.8816464,85.762305 C82.0502107,96.7383407 80.6979393,128.855284 80.6979393,136.071369 C80.6979393,154.877076 86.0633393,172.683969 96.2153036,187.569876 C106.215361,202.231398 120.426125,212.979076 136.230425,217.833155 L139.000496,218.684034 L141.769575,217.833155 C157.574868,212.979076 171.784639,202.231398 181.784696,187.569876 C191.936661,172.683969 197.302061,154.877076 197.302061,136.071369 C197.302061,128.540548 195.841568,95.0504836 191.702346,83.6832621 L190.984511,81.7124407 L189.499196,80.2310979 C180.126625,70.8833479 156.234511,69.4873907 142.826968,69.4873907 M142.826968,78.9215193 C160.529611,78.9215193 177.427046,81.5148621 182.837125,86.9120336 C186.071854,95.7951264 187.867932,125.853876 187.867932,136.071369 C187.867932,170.879948 167.149982,200.169234 139.000496,208.814041 C110.850018,200.169234 90.1320679,170.879948 90.1320679,136.071369 C90.1320679,126.245062 91.785175,97.4780193 94.7885679,88.8699479 C101.071368,82.3448907 122.482332,78.9215193 142.826968,78.9215193" id="Fill-13" fill="#FFC84C"></path>
                </g>
                <g id="Group-18" transform="translate(89.357143, 139.992857)">
                    <mask id="mask-2" fill="white">
                        <use xlink:href="#path-1"></use>
                    </mask>
                    <g id="Clip-17"></g>
                    <polygon id="Fill-16" fill="#69ACE1" mask="url(#mask-2)" points="-77.2929357 122.722107 183.416457 122.722107 183.416457 0.956121429 -77.2929357 0.956121429"></polygon>
                </g>
                <g id="Group-30">
                    <path d="M155.372413,169.190006 C155.372413,178.231956 148.042149,185.56222 139.000199,185.56222 C129.957256,185.56222 122.627984,178.231956 122.627984,169.190006 C122.627984,160.148056 129.957256,152.817791 139.000199,152.817791 C148.042149,152.817791 155.372413,160.148056 155.372413,169.190006 Z" id="Fill-19" fill="#D80006"></path>
                    <path d="M139,157.534657 C132.572243,157.534657 127.34485,162.763043 127.34485,169.189807 C127.34485,175.617564 132.572243,180.84595 139,180.84595 C145.427757,180.84595 150.65515,175.617564 150.65515,169.189807 C150.65515,162.763043 145.427757,157.534657 139,157.534657 M139,190.280079 C127.370664,190.280079 117.909729,180.819143 117.909729,169.189807 C117.909729,157.560471 127.370664,148.099536 139,148.099536 C150.629336,148.099536 160.090271,157.560471 160.090271,169.189807 C160.090271,180.819143 150.629336,190.280079 139,190.280079" id="Fill-21" fill="#012660"></path>
                    <polygon id="Fill-23" fill="#FFC84C" points="161.996656 133.158227 114.470571 133.158227 108.810292 120.375191 167.656935 120.375191"></polygon>
                    <mask id="mask-4" fill="white">
                        <use xlink:href="#path-3"></use>
                    </mask>
                    <g id="Clip-26"></g>
                    <polygon id="Fill-25" fill="#FFC84C" mask="url(#mask-4)" points="110.697614 115.413686 134.754543 115.413686 134.754543 104.093129 110.697614 104.093129"></polygon>
                    <polygon id="Fill-27" fill="#FFC84C" mask="url(#mask-4)" points="140.119943 115.413686 164.177864 115.413686 164.177864 104.093129 140.119943 104.093129"></polygon>
                    <polygon id="Fill-28" fill="#FFC84C" mask="url(#mask-4)" points="117.61485 99.3760643 133.750764 99.3760643 133.750764 88.0545143 117.61485 88.0545143"></polygon>
                    <polygon id="Fill-29" fill="#FFC84C" mask="url(#mask-4)" points="139.2363 99.3760643 155.372214 99.3760643 155.372214 88.0545143 139.2363 88.0545143"></polygon>
                </g>
            </g>
        </g>
    </g>
</svg>