<?xml version="1.0" encoding="UTF-8"?>
<svg width="278px" height="278px" viewBox="0 0 278 278" version="1.1" xmlns="http://www.w3.org/2000/svg" xmlns:xlink="http://www.w3.org/1999/xlink">
    <!-- Generator: Sketch 43.2 (39069) - http://www.bohemiancoding.com/sketch -->
    <title>nyr/nyr</title>
    <desc>Created with Sketch.</desc>
    <defs>
        <polygon id="path-1" points="0 237.916 298.24 237.916 298.24 0 0 0"></polygon>
    </defs>
    <g id="Page-1" stroke="none" stroke-width="1" fill="none" fill-rule="evenodd">
        <g id="nyr/nyr">
            <g transform="translate(-10.000000, 22.000000)">
                <path d="M237.8978,5.0002 L60.3418,5.0002 L60.3418,140.7982 L60.4108,140.7982 C60.3698,141.9062 60.3418,143.0192 60.3418,144.1372 C60.3418,193.1702 100.0878,232.9162 149.1188,232.9162 C198.1508,232.9162 237.8978,193.1702 237.8978,144.1372 C237.8978,143.0192 237.8708,141.9062 237.8298,140.7982 L237.8978,140.7982 L237.8978,5.0002 Z" id="Fill-1" fill="#FFFFFF"></path>
                <path d="M237.8978,5.0002 L60.3418,5.0002 L60.3418,140.7982 L60.4108,140.7982 C60.3698,141.9062 60.3418,143.0192 60.3418,144.1372 C60.3418,193.1702 100.0878,232.9162 149.1188,232.9162 C198.1508,232.9162 237.8978,193.1702 237.8978,144.1372 C237.8978,143.0192 237.8708,141.9062 237.8298,140.7982 L237.8978,140.7982 L237.8978,5.0002 Z" id="Stroke-3" stroke="#1F316E" stroke-width="10"></path>
                <path d="M200.0756,137.2463 C200.0756,165.3893 177.2626,188.2023 149.1196,188.2023 C120.9776,188.2023 98.1646,165.3893 98.1646,137.2463 C98.1646,109.1043 120.9776,86.2913 149.1196,86.2913 C177.2626,86.2913 200.0756,109.1043 200.0756,137.2463" id="Fill-5" fill="#FFC300"></path>
                <path d="M172.2328,89.2463 C172.2328,102.0123 161.8848,112.3593 149.1198,112.3593 C136.3548,112.3593 126.0068,102.0123 126.0068,89.2463 C126.0068,76.4813 136.3548,66.1343 149.1198,66.1343 C161.8848,66.1343 172.2328,76.4813 172.2328,89.2463" id="Fill-7" fill="#FFFFFF"></path>
                <path d="M172.2328,89.2463 C172.2328,102.0123 161.8848,112.3593 149.1198,112.3593 C136.3548,112.3593 126.0068,102.0123 126.0068,89.2463 C126.0068,76.4813 136.3548,66.1343 149.1198,66.1343 C161.8848,66.1343 172.2328,76.4813 172.2328,89.2463 Z" id="Stroke-9" stroke="#1F316E" stroke-width="6"></path>
                <polygon id="Fill-11" fill="#FF0029" points="8.0355 170.6174 8.0355 154.5114 31.8725 141.6164 30.3835 135.6614 14.7885 134.0204 14.7885 109.3074 10.0595 108.6334 3.9765 96.1444 27.7335 95.8714 27.7335 124.7484 31.3935 124.5324 102.3285 93.4994 127.6245 114.9344 132.8465 141.4494 147.6525 161.1114 105.7665 160.8754 101.4275 150.0254 105.4715 144.9034 98.4615 144.1654 102.5325 160.0774 78.9805 167.2874 67.3805 149.3604 77.7295 146.4044 82.3585 151.8034 82.7605 151.6364 79.4425 146.1864 59.6375 146.1864 48.1175 157.7074 34.2135 157.7074 21.3035 170.6174"></polygon>
                <path d="M102.7552,90.5832 L99.8982,91.8332 L30.8012,122.0632 L30.2342,122.0972 L30.2342,98.4002 L30.2342,93.3432 L25.1762,93.4012 L7.8962,93.6002 L0.0002,93.6902 L3.4582,100.7892 L7.2332,108.5352 L8.3942,110.9202 L11.0202,111.2952 L12.2882,111.4762 L12.2882,131.7692 L12.2882,136.2712 L16.7652,136.7412 L28.3812,137.9642 L28.9762,140.3412 L8.1562,151.6032 L5.5352,153.0212 L5.5352,156.0012 L5.5352,168.1172 L5.5352,173.1172 L10.5352,173.1172 L20.2682,173.1172 L22.3392,173.1172 L23.8032,171.6532 L35.2492,160.2062 L47.0822,160.2062 L49.1522,160.2062 L50.6172,158.7422 L60.6732,148.6872 L63.9672,148.6872 L67.1162,153.5542 L75.8562,167.0602 L77.9062,170.2292 L81.5172,169.1242 L100.9822,163.1662 L103.6622,162.3452 L104.0702,163.3662 L107.4352,163.3852 L142.5922,163.5832 L152.6882,163.6412 L146.6132,155.5752 L135.1882,140.4032 L130.2452,115.3102 L129.9072,113.5932 L128.5722,112.4622 L105.1352,92.6002 L102.7552,90.5832 Z M101.9022,96.4142 L125.3402,116.2762 L130.5042,142.4952 L142.6192,158.5832 L107.4632,158.3852 L104.2852,150.4402 L110.2442,142.8922 L95.1492,141.3042 L99.5192,158.3852 L80.0532,164.3432 L71.3142,150.8372 L76.8752,149.2482 L81.6432,154.8102 L86.4092,152.8232 L80.8482,143.6872 L58.6022,143.6872 L47.0822,155.2062 L33.1782,155.2062 L20.2682,168.1172 L10.5352,168.1172 L10.5352,156.0012 L34.7682,142.8922 L32.3842,133.3582 L17.2882,131.7692 L17.2882,107.1402 L11.7272,106.3452 L7.9532,98.5992 L25.2342,98.4002 L25.2342,127.3992 L31.9862,127.0022 L101.9022,96.4142 Z" id="Fill-13" fill="#FFFFFF"></path>
                <polygon id="Fill-15" fill="#FF0029" points="276.9369 170.6174 264.0269 157.7074 250.1229 157.7074 238.6029 146.1864 218.7969 146.1864 215.4799 151.6364 215.8809 151.8034 220.5099 146.4044 230.8599 149.3604 219.2589 167.2874 195.7079 160.0774 199.7789 144.1654 192.7689 144.9034 196.8129 150.0254 192.4729 160.8754 150.5849 161.1114 165.3939 141.4494 170.6159 114.9344 195.9119 93.4994 266.8459 124.5324 270.5059 124.7484 270.5059 95.8714 294.2629 96.1444 288.1799 108.6334 283.4519 109.3074 283.4519 134.0204 267.8569 135.6614 266.3679 141.6164 290.2049 154.5114 290.2049 170.6174"></polygon>
                <path d="M195.4847,90.5832 L193.1047,92.6002 L169.6677,112.4622 L168.3327,113.5932 L167.9947,115.3102 L163.0517,140.4032 L151.6257,155.5752 L145.5517,163.6412 L155.6477,163.5832 L190.8047,163.3852 L194.1697,163.3662 L194.5777,162.3452 L197.2577,163.1662 L216.7227,169.1242 L220.3337,170.2292 L222.3837,167.0602 L231.1237,153.5542 L234.2727,148.6872 L237.5667,148.6872 L247.6227,158.7422 L249.0867,160.2062 L251.1577,160.2062 L262.9907,160.2062 L274.4367,171.6532 L275.9007,173.1172 L277.9717,173.1172 L287.7047,173.1172 L292.7047,173.1172 L292.7047,168.1172 L292.7047,156.0012 L292.7047,153.0212 L290.0837,151.6032 L269.2637,140.3412 L269.8577,137.9642 L281.4747,136.7412 L285.9517,136.2712 L285.9517,131.7692 L285.9517,111.4762 L287.2197,111.2952 L289.8457,110.9202 L291.0077,108.5352 L294.7817,100.7892 L298.2397,93.6902 L290.3437,93.6002 L273.0637,93.4012 L268.0057,93.3432 L268.0057,98.4002 L268.0057,122.0972 L267.4387,122.0632 L198.3417,91.8332 L195.4847,90.5832 Z M196.3387,96.4142 L266.2537,127.0022 L273.0057,127.3992 L273.0057,98.4002 L290.2867,98.5992 L286.5127,106.3452 L280.9517,107.1402 L280.9517,131.7692 L265.8557,133.3582 L263.4727,142.8922 L287.7047,156.0012 L287.7047,168.1172 L277.9717,168.1172 L265.0617,155.2062 L251.1577,155.2062 L239.6377,143.6872 L217.3917,143.6872 L211.8307,152.8232 L216.5967,154.8102 L221.3647,149.2482 L226.9257,150.8372 L218.1857,164.3432 L198.7207,158.3852 L203.0907,141.3042 L187.9957,142.8922 L193.9547,150.4402 L190.7767,158.3852 L155.6197,158.5832 L167.7357,142.4952 L172.9007,116.2762 L196.3387,96.4142 Z" id="Fill-17" fill="#FFFFFF"></path>
                <path d="M158.0179,89.2463 C158.0179,94.1613 154.0349,98.1443 149.1199,98.1443 C144.2049,98.1443 140.2219,94.1613 140.2219,89.2463 C140.2219,84.3323 144.2049,80.3493 149.1199,80.3493 C154.0349,80.3493 158.0179,84.3323 158.0179,89.2463" id="Fill-19" fill="#1F316E"></path>
                <path d="M92.5648,181.8489 C92.5648,181.8489 149.8978,239.8489 199.2318,181.8489" id="Stroke-21" stroke="#1F316E" stroke-width="24" stroke-dasharray="3,13"></path>
                <mask id="mask-2" fill="white">
                    <use xlink:href="#path-1"></use>
                </mask>
                <g id="Clip-24"></g>
                <path d="M77.61,56.526 L84.842,56.526 L84.842,21.183 L77.61,21.183 L77.61,56.526 Z M94.788,56.526 L102.02,56.526 L102.02,21.183 L94.788,21.183 L94.788,56.526 Z M111.965,56.526 L119.197,56.526 L119.197,21.183 L111.965,21.183 L111.965,56.526 Z M129.142,56.526 L136.374,56.526 L136.374,21.183 L129.142,21.183 L129.142,56.526 Z M146.319,56.526 L153.552,56.526 L153.552,21.183 L146.319,21.183 L146.319,56.526 Z M163.497,56.526 L170.729,56.526 L170.729,21.183 L163.497,21.183 L163.497,56.526 Z M180.674,56.526 L187.907,56.526 L187.907,21.183 L180.674,21.183 L180.674,56.526 Z M197.851,56.526 L205.083,56.526 L205.083,21.183 L197.851,21.183 L197.851,56.526 Z M215.029,56.526 L222.261,56.526 L222.261,21.183 L215.029,21.183 L215.029,56.526 Z" id="Fill-23" fill="#FF0029" mask="url(#mask-2)"></path>
            </g>
        </g>
    </g>
</svg>