<?xml version="1.0" encoding="UTF-8"?>
<svg width="278px" height="278px" viewBox="0 0 278 278" version="1.1" xmlns="http://www.w3.org/2000/svg" xmlns:xlink="http://www.w3.org/1999/xlink">
    <!-- Generator: Sketch 43.2 (39069) - http://www.bohemiancoding.com/sketch -->
    <title>psg/psg</title>
    <desc>Created with Sketch.</desc>
    <defs>
        <polygon id="path-1" points="0 138.998176 0 277.014184 276.028369 277.014184 276.028369 138.998176 276.028369 0.982168085 0 0.982168085"></polygon>
        <path d="M0.10548227,76.8916454 C0.10548227,119.344809 34.520305,153.760617 76.9744539,153.760617 C119.427617,153.760617 153.84244,119.344809 153.84244,76.8916454 C153.84244,34.4384823 119.427617,0.0236595745 76.9744539,0.0236595745 C34.520305,0.0236595745 0.10548227,34.4384823 0.10548227,76.8916454 Z" id="path-3"></path>
        <path d="M0.10548227,76.8916454 C0.10548227,34.4384823 34.520305,0.0236595745 76.9744539,0.0236595745 C119.427617,0.0236595745 153.84244,34.4384823 153.84244,76.8916454 C153.84244,119.344809 119.427617,153.760617 76.9744539,153.760617 C34.520305,153.760617 0.10548227,119.344809 0.10548227,76.8916454 Z" id="path-5"></path>
    </defs>
    <g id="Page-1" stroke="none" stroke-width="1" fill="none" fill-rule="evenodd">
        <g id="psg/psg">
            <g transform="translate(1.000000, 0.000000)">
                <g id="Group-10" transform="translate(0.000000, 0.073936)">
                    <path d="M270.694909,138.99793 C270.694909,212.279518 211.290647,271.680823 138.012016,271.680823 C64.7343702,271.680823 5.33306525,212.279518 5.33306525,138.99793 C5.33306525,65.7232418 64.7343702,6.31503617 138.012016,6.31503617 C211.290647,6.31503617 270.694909,65.7232418 270.694909,138.99793" id="Fill-1" fill="#FFFFFF"></path>
                    <g id="Group-5">
                        <mask id="mask-2" fill="white">
                            <use xlink:href="#path-1"></use>
                        </mask>
                        <g id="Clip-4"></g>
                        <path d="M138.012213,11.6486929 C67.7935532,11.6486929 10.6665248,68.7767071 10.6665248,138.998324 C10.6665248,209.218955 67.7935532,266.34697 138.012213,266.34697 C208.231858,266.34697 265.361844,209.218955 265.361844,138.998324 C265.361844,68.7767071 208.231858,11.6486929 138.012213,11.6486929 M138.012213,277.01448 C61.9121773,277.01448 0,215.100331 0,138.998324 C0,62.8953312 61.9121773,0.982168085 138.012213,0.982168085 C214.11422,0.982168085 276.028369,62.8953312 276.028369,138.998324 C276.028369,215.100331 214.11422,277.01448 138.012213,277.01448" id="Fill-3" fill="#005190" mask="url(#mask-2)"></path>
                    </g>
                    <path d="M256.417933,138.99793 C256.417933,204.393979 203.406685,257.40227 138.012607,257.40227 C72.6205007,257.40227 19.6112241,204.393979 19.6112241,138.99793 C19.6112241,73.6087809 72.6205007,20.5935894 138.012607,20.5935894 C203.406685,20.5935894 256.417933,73.6087809 256.417933,138.99793" id="Fill-6" fill="#005190"></path>
                    <path d="M138.013199,66.396061 C97.9811986,66.396061 65.4128085,98.9644511 65.4128085,138.997437 C65.4128085,179.031409 97.9811986,211.600784 138.013199,211.600784 C178.04717,211.600784 210.61556,179.031409 210.61556,138.997437 C210.61556,98.9644511 178.04717,66.396061 138.013199,66.396061 M138.013199,222.268295 C92.0998227,222.268295 54.7462837,184.91377 54.7462837,138.997437 C54.7462837,93.0830752 92.0998227,55.7295362 138.013199,55.7295362 C183.928546,55.7295362 221.283071,93.0830752 221.283071,138.997437 C221.283071,184.91377 183.928546,222.268295 138.013199,222.268295" id="Fill-8" fill="#FFFFFF"></path>
                </g>
                <g id="Group-17" transform="translate(62.106383, 62.180319)">
                    <g id="Group-13">
                        <mask id="mask-4" fill="white">
                            <use xlink:href="#path-3"></use>
                        </mask>
                        <g id="Clip-12"></g>
                        <path d="M41.1943752,155.182065 C23.9978078,149.207036 8.42290709,138.88949 -3.84753972,125.343398 L-8.67606454,120.013093 L-2.17263901,116.941291 C37.6257227,98.1368589 63.3417085,57.5626603 63.3417085,13.5745823 C63.3417085,-7.33358085 57.6436943,-27.7853113 46.8638007,-45.5694248 L43.1265738,-51.7337298 L50.1150206,-53.5032688 C58.8730064,-55.7223397 67.909978,-56.8471553 76.9745525,-56.8471553 C86.039127,-56.8471553 95.0760986,-55.7223397 103.834084,-53.5032688 L110.822531,-51.7337298 L107.085304,-45.5694248 C96.3054106,-27.7853113 90.6073965,-7.33358085 90.6073965,13.5745823 C90.6073965,57.5626603 116.323382,98.1368589 156.121744,116.941291 L162.62517,120.013093 L157.796645,125.343398 C145.526198,138.890476 129.950311,149.207036 112.75473,155.181079 L100.990992,159.269256 L106.149765,147.933362 C108.055347,143.744632 109.023418,139.284802 109.023418,134.676114 C109.023418,117.004384 94.646283,102.627249 76.9745525,102.627249 C59.302822,102.627249 44.9256872,117.004384 44.9256872,134.676114 C44.9256872,139.284802 45.8937582,143.744632 47.7993397,147.934348 L52.957127,159.269256 L41.1943752,155.182065 Z" id="Fill-11" fill="#EC4047" mask="url(#mask-4)"></path>
                    </g>
                    <g id="Group-16">
                        <mask id="mask-6" fill="white">
                            <use xlink:href="#path-5"></use>
                        </mask>
                        <g id="Clip-15"></g>
                        <path d="M76.9735667,-62.1806149 C67.4643894,-62.1806149 57.9857723,-61.0005936 48.8038858,-58.673083 L34.8299496,-55.1320333 L42.3024319,-42.8034234 C52.5775879,-25.8533099 58.0084461,-6.35782057 58.0084461,13.5753709 C58.0084461,34.6185908 51.9989142,55.0368035 40.6304887,72.6207965 C29.5489355,89.7621582 13.9592475,103.419648 -4.45085887,112.11947 L-17.4557383,118.264059 L-7.79967447,128.924669 C5.06916241,143.132243 21.4060986,153.953541 39.4455383,160.221357 L62.9759709,168.39574 L52.6534957,145.723952 C51.0663326,142.236137 50.2599355,138.518626 50.2599355,134.675917 C50.2599355,119.94586 62.2444957,107.9613 76.9735667,107.9613 C91.7046092,107.9613 103.68917,119.94586 103.68917,134.675917 C103.68917,138.518626 102.883758,142.235151 101.295609,145.722967 L90.973134,168.39574 L114.503567,160.221357 C132.543992,153.953541 148.879943,143.132243 161.748779,128.924669 L171.404843,118.264059 L158.399964,112.11947 C139.989857,103.419648 124.40017,89.7621582 113.318616,72.6207965 C101.950191,55.0368035 95.9406589,34.6185908 95.9406589,13.5753709 C95.9406589,-6.35782057 101.371517,-25.8533099 111.646673,-42.8034234 L119.120141,-55.1320333 L105.145219,-58.673083 C95.9633326,-61.0005936 86.4837298,-62.1806149 76.9735667,-62.1806149 M76.9735667,-51.5140901 C85.792673,-51.5140901 94.3505383,-50.4050475 102.524921,-48.3328631 C91.5764532,-30.2737071 85.274134,-9.08557234 85.274134,13.5753709 C85.274134,61.3726404 113.316645,102.614236 153.843524,121.763704 C142.290751,134.518187 127.603084,144.377328 111.003921,150.14435 C113.150042,145.429194 114.35668,140.194513 114.35668,134.675917 C114.35668,114.030967 97.6195028,97.2947752 76.9735667,97.2947752 C56.3296021,97.2947752 39.5934106,114.030967 39.5934106,134.675917 C39.5934106,140.194513 40.7990631,145.429194 42.9451837,150.14435 C26.3460206,144.377328 11.6583539,134.518187 0.105580851,121.763704 C40.6334461,102.614236 68.6749709,61.3726404 68.6749709,13.5753709 C68.6749709,-9.08557234 62.371666,-30.2737071 51.4241837,-48.3328631 C59.5985667,-50.4050475 68.1564319,-51.5140901 76.9735667,-51.5140901" id="Fill-14" fill="#FFFFFF" mask="url(#mask-6)"></path>
                    </g>
                </g>
            </g>
        </g>
    </g>
</svg>