<?xml version="1.0" encoding="UTF-8"?>
<svg width="278px" height="278px" viewBox="0 0 278 278" version="1.1" xmlns="http://www.w3.org/2000/svg" xmlns:xlink="http://www.w3.org/1999/xlink">
    <!-- Generator: Sketch 43.2 (39069) - http://www.bohemiancoding.com/sketch -->
    <title>war/war</title>
    <desc>Created with Sketch.</desc>
    <defs>
        <path d="M194.813232,174.921024 C171.247379,224.001598 123.936851,234.185982 100.561078,253.586277 C75.1526667,232.441518 26.9236099,224.982837 6.3052766,174.909319 C-14.3120709,124.834816 25.9880709,91.7429574 6.3052766,0.140971631 L194.813232,0.140971631 L194.813232,0.166598761 C185.578674,42.2924444 189.826008,72.2502857 194.813227,97.0984897 L194.813232,174.921024 L194.813232,174.921024 Z" id="path-1"></path>
        <path d="M37.9118144,215.790796 C25.3036038,206.086166 13.9209676,193.404725 6.3052766,174.909319 C-14.3120709,124.834816 25.9880709,91.7429574 6.3052766,0.140971631 L194.818851,0.140971631 C174.728915,91.7429574 218.383787,125.816688 194.818851,174.909319 C186.120036,193.031518 174.184325,205.851679 161.410942,215.790796 L37.9118144,215.790796 L37.9118144,215.790796 Z" id="path-3"></path>
    </defs>
    <g id="Page-1" stroke="none" stroke-width="1" fill="none" fill-rule="evenodd">
        <g id="war/war">
            <g transform="translate(28.000000, 0.000000)">
                <path d="M38.7953929,31.3782149 C44.3317333,70.8532291 38.9314355,98.4432504 34.5169532,120.999697 L34.4380879,121.398952 C30.160634,143.252513 27.0701021,159.043307 34.6608823,177.475101 C46.1140879,205.289889 68.5137901,216.951101 90.1761021,228.228832 C97.3074922,231.941413 104.129336,235.493307 110.458272,239.531208 C115.711684,236.169577 121.501379,232.965676 128.135918,229.353648 C150.171854,217.363172 172.957996,204.96457 186.587882,176.566179 C195.17335,158.681513 191.838336,142.800023 187.221762,120.82225 C182.435627,98.0301936 176.60157,70.2489241 182.050173,31.3782149 L38.7953929,31.3782149 Z" id="Fill-1" fill="#FFFFFF"></path>
                <g id="Group-9" transform="translate(9.858156, 10.618220)">
                    <g id="Group-5">
                        <mask id="mask-2" fill="white">
                            <use xlink:href="#path-1"></use>
                        </mask>
                        <g id="Clip-4"></g>
                        <polygon id="Fill-3" fill="#00A44E" mask="url(#mask-2)" points="194.813232 230.552005 36.0012957 394.326537 -205.04935 160.579799 -46.2383993 -3.19473262"></polygon>
                    </g>
                    <g id="Group-8">
                        <mask id="mask-4" fill="white">
                            <use xlink:href="#path-3"></use>
                        </mask>
                        <g id="Clip-7"></g>
                        <polygon id="Fill-6" fill="#EE1414" mask="url(#mask-4)" points="202.127984 215.790796 216.042771 201.440279 -25.0078745 -32.305473 -38.9236475 -17.9549553"></polygon>
                    </g>
                </g>
                <g id="Group-18" transform="translate(0.000000, 0.760064)">
                    <path d="M38.7953929,30.6181511 C44.3317333,70.0931652 38.9314355,97.6831865 34.5169532,120.239633 L34.4380879,120.638889 C30.160634,142.492449 27.0701021,158.283243 34.6608823,176.715038 C46.1140879,204.529825 68.5137901,216.191038 90.1761021,227.468768 C97.3074922,231.18135 104.129336,234.733243 110.458272,238.771144 C115.711684,235.409513 121.501379,232.205612 128.135918,228.593584 C150.171854,216.603109 172.957996,204.204506 186.587882,175.806116 C195.17335,157.921449 191.838336,142.03996 187.221762,120.062187 C182.435627,97.2701298 176.60157,69.4888603 182.050173,30.6181511 L38.7953929,30.6181511 Z M110.434613,262.815187 L104.643932,258.56435 C97.9739035,253.667804 89.7886766,249.407109 81.1233574,244.894045 C58.6438043,233.191428 30.6860738,218.637832 16.5031447,184.192449 C6.66569078,160.304165 10.6050099,140.174796 15.1673645,116.867158 L15.245244,116.467903 C19.9968752,92.1971227 25.3804142,64.6889241 17.5974,22.5847397 L15.4522652,10.9816901 L205.461322,10.9816901 L203.263939,22.6222007 C195.480925,63.845066 201.292308,91.5198674 206.421506,115.936548 C211.442265,139.841591 215.760138,160.408662 204.292145,184.303846 C187.916762,218.420952 159.974804,233.625187 137.521868,245.842399 C129.003435,250.47869 122.026818,254.362804 116.240081,258.58308 L110.434613,262.815187 Z" id="Fill-10" fill="#FFFFFF"></path>
                    <path d="M28.052566,19.8175553 C35.4895589,63.5552362 29.522417,94.0386262 24.6505163,118.931456 C19.979722,142.801009 16.6033035,160.047853 25.2429915,181.027981 C38.1118284,212.280307 62.5985021,225.027889 86.2787787,237.355513 C94.8928355,241.839988 103.136226,246.132229 110.43619,251.167775 C116.905112,246.730619 124.277041,242.71835 131.96936,238.531591 C154.815637,226.100456 180.710055,212.009208 195.825566,180.518314 C205.726112,159.89308 202.056906,142.422456 196.977984,118.241385 C191.760062,93.3919312 185.370006,62.9686759 192.755736,19.8175553 L28.052566,19.8175553 Z M110.410559,276.209463 L104.1388,270.990555 C97.0803603,265.118052 87.4292255,260.09335 77.2112468,254.773889 C52.9177929,242.12686 22.6848,226.388314 7.08426809,188.505392 C-3.80209362,162.066804 0.45367234,140.32957 5.37880709,115.15874 C10.5937716,88.517073 16.5037362,58.3195695 6.56375745,12.062144 L4.01148085,0.181094326 L216.882587,0.181094326 L214.268204,12.1035482 C204.299637,57.5535908 210.619701,87.651527 216.197445,114.205456 C221.625346,140.056499 226.312899,162.380293 213.529828,189.016045 C195.667835,226.225655 165.55314,242.612867 141.355311,255.780406 C131.49124,261.149158 122.972807,265.785449 116.688233,270.999428 L110.410559,276.209463 Z" id="Fill-12" fill="#000000"></path>
                    <path d="M142.282963,40.3935972 C129.609318,40.3935972 119.297687,50.7042426 119.297687,63.3788738 C119.297687,76.0544908 129.609318,86.366122 142.282963,86.366122 C154.957594,86.366122 165.269226,76.0544908 165.269226,63.3788738 C165.269226,50.7042426 154.957594,40.3935972 142.282963,40.3935972 M142.282963,96.1838596 C124.195218,96.1838596 109.478963,81.4676043 109.478963,63.3788738 C109.478963,45.2911291 124.195218,30.5748738 142.282963,30.5748738 C160.371694,30.5748738 175.086963,45.2911291 175.086963,63.3788738 C175.086963,81.4676043 160.371694,96.1838596 142.282963,96.1838596" id="Fill-14" fill="#000000"></path>
                    <polygon id="Fill-16" fill="#000000" points="155.585657 74.8008291 131.530771 74.8008291 131.530771 49.7620986 140.366636 49.7620986 140.366636 65.963978 155.585657 65.963978"></polygon>
                </g>
            </g>
        </g>
    </g>
</svg>