<?xml version="1.0" encoding="utf-8"?>
<!-- Generator: Adobe Illustrator 21.0.2, SVG Export Plug-In . SVG Version: 6.00 Build 0)  -->
<!DOCTYPE svg PUBLIC "-//W3C//DTD SVG 1.1//EN" "http://www.w3.org/Graphics/SVG/1.1/DTD/svg11.dtd">
<svg version="1.1" id="Layer_1" xmlns="http://www.w3.org/2000/svg" xmlns:xlink="http://www.w3.org/1999/xlink" x="0px" y="0px"
	 viewBox="0 0 647.8 207.2" style="enable-background:new 0 0 647.8 207.2;" xml:space="preserve">
<style type="text/css">
	.st0{fill:#18EFC6;}
	.st1{fill:#231F20;}
	.st2{fill:#FFFFFF;}
	.st3{fill:#D11919;}
	.st4{fill:#3F549E;}
	.st5{fill:none;}
	.st6{fill:url(#SVGID_1_);}
	.st7{fill:url(#SVGID_2_);}
	.st8{fill:url(#SVGID_3_);}
	.st9{opacity:0.8;fill:#18EFC6;}
	.st10{opacity:0.5;fill:#18EFC6;}
	.st11{opacity:0.6;fill:#18EFC6;}
	.st12{opacity:0.7;fill:#18EFC6;}
	.st13{opacity:0.2;fill:#18EFC6;}
	.st14{opacity:0.4;fill:#18EFC6;}
	.st15{opacity:0.3;fill:#18EFC6;}
	.st16{fill:#F96846;}
	.st17{opacity:0.8;fill:#F96846;}
	.st18{opacity:0.5;fill:#F96846;}
	.st19{opacity:0.6;fill:#F96846;}
	.st20{opacity:0.7;fill:#F96846;}
	.st21{opacity:0.2;fill:#F96846;}
	.st22{opacity:0.4;fill:#F96846;}
	.st23{opacity:0.3;fill:#F96846;}
</style>
<g>
	<g>
		<path class="st0" d="M103.6,207.2C46.5,207.2,0,160.7,0,103.6S46.5,0,103.6,0s103.6,46.5,103.6,103.6S160.7,207.2,103.6,207.2z
			 M103.6,24.2c-43.8,0-79.4,35.6-79.4,79.4c0,43.8,35.6,79.4,79.4,79.4s79.4-35.6,79.4-79.4C183,59.8,147.4,24.2,103.6,24.2z"/>
	</g>
	<path class="st1" d="M287.8,150.9c-3.9,0.7-9.6,1.3-17.2,1.3c-12.1,0-28.8-1.5-28.8-28.7V88.9H229V69.6h12.8V45.5h25.6v24.1H286
		v19.2h-18.6v29c0,12,4.7,13.8,11.1,13.8c3.2,0,6.9-0.2,9.3-0.5V150.9z"/>
	<path class="st1" d="M381.8,69.6v81.3H356v-11.5c-3.9,7.4-14.3,13.5-24.8,13.5c-23.4,0-39.6-18.4-39.6-42.7s16.2-42.7,39.6-42.7
		c10.5,0,20.9,6.2,24.8,13.7V69.6H381.8z M356,110.3c0-11.1-7.8-20.7-19.4-20.7c-11.6,0-19.4,9.6-19.4,20.7
		c0,11.3,7.8,20.7,19.4,20.7C348.3,131,356,121.6,356,110.3z"/>
	<path class="st1" d="M423.2,81.3c3.9-7.4,14.3-13.7,25-13.7c23.4,0,39.6,18.4,39.6,42.7S471.6,153,448.2,153
		c-10.6,0-21.1-6.2-25-13.7v48.4h-25.8V69.6h25.8V81.3z M423.2,110.3c0,11.3,7.8,20.7,19.6,20.7c11.5,0,19.2-9.4,19.2-20.7
		s-7.8-20.7-19.2-20.7C431,89.5,423.2,99,423.2,110.3z"/>
	<path class="st1" d="M537.6,26.3c9.4,0,16.7,7.3,16.7,16.4c0,8.9-7.3,16.4-16.7,16.4c-9.3,0-16.5-7.4-16.5-16.4
		C521.1,33.5,528.4,26.3,537.6,26.3z M524.8,69.6h25.8v81.3h-25.8V69.6z"/>
	<path class="st1" d="M566.2,69.6H592v11.8c4.6-8.8,14-13.8,26.6-13.8c10.5,0,18.4,3.5,22.8,9.3c5.1,6.2,6.4,14.2,6.4,25.8v48.2H622
		v-41.7c0-11.6-3.5-19.7-14.3-19.7c-10.5,0-15.7,8.1-15.7,20.6v40.8h-25.8V69.6z"/>
	<g>
		<path class="st0" d="M138.4,58.3c-5-3.8-10.6-6.9-16.7-8.9l-72.3,72.3c2,6.1,5.1,11.7,8.9,16.7L138.4,58.3z"/>
		<path class="st0" d="M137,82.2l23.6,23.6c0-0.8,0.1-1.5,0.1-2.3c0-12.7-4.2-24.4-11.2-33.9L137,82.2z"/>
		<path class="st0" d="M46.4,103.3l56.9-56.9C72,46.6,46.6,72,46.4,103.3z"/>
		<path class="st0" d="M126.3,92.9l-12.8,12.8l34.2,34.2c4-4.8,7.1-10.3,9.3-16.3L126.3,92.9z"/>
		<path class="st0" d="M79.3,139.9l-9.6,9.6c8.6,6.3,19,10.3,30.2,11L79.3,139.9z"/>
		<path class="st0" d="M102.8,116.4L90,129.2l29.3,29.3c6.3-1.8,12.1-4.6,17.3-8.3L102.8,116.4z"/>
	</g>
</g>
</svg>
