<?xml version="1.0" encoding="UTF-8"?>
<svg width="40px" height="40px" viewBox="0 0 40 40" version="1.1" xmlns="http://www.w3.org/2000/svg" xmlns:xlink="http://www.w3.org/1999/xlink">
    <!-- Generator: Sketch 42 (36781) - http://www.bohemiancoding.com/sketch -->
    <title>mancity</title>
    <desc>Created with Sketch.</desc>
    <defs>
        <path d="M0.132091345,0.143074286 C0.397589583,5.02779028 3.30947872,9.06566128 7.2,10.2985257 C11.0905213,9.06566128 14.0024104,5.02779028 14.2679087,0.143074286 L0.132091345,0.143074286 L0.132091345,0.143074286 Z" id="path-1"></path>
        <polygon id="path-3" points="0 40 40 40 40 0 0 0"></polygon>
    </defs>
    <g id="Page-1" stroke="none" stroke-width="1" fill="none" fill-rule="evenodd">
        <g id="layout3-copy-3" transform="translate(-40.000000, -42.000000)">
            <g id="#1" transform="translate(40.000000, 42.000000)">
                <g id="mancity">
                    <g id="Page-1-Copy">
                        <g id="Group-15">
                            <path d="M20,3.80608571 C28.9435714,3.80608571 36.1938571,11.0563714 36.1938571,19.9999429 C36.1938571,28.9436571 28.9435714,36.1939429 20,36.1939429 C11.0564286,36.1939429 3.80614286,28.9436571 3.80614286,19.9999429 C3.80614286,11.0563714 11.0564286,3.80608571 20,3.80608571" id="Fill-1" fill="#FFFFFF"></path>
                            <path d="M20,1.76994286 C15.1305714,1.76994286 10.5525714,3.66608571 7.10942857,7.10937143 C3.66614286,10.5526571 1.77,15.1305143 1.77,19.9999429 C1.77,24.8693714 3.66614286,29.4473714 7.10942857,32.8906571 C10.5525714,36.3338 15.1305714,38.2300857 20,38.2300857 C24.8694286,38.2300857 29.4474286,36.3338 32.8905714,32.8906571 C36.3338571,29.4473714 38.23,24.8693714 38.23,19.9999429 C38.23,15.1305143 36.3338571,10.5526571 32.8905714,7.10937143 C29.4474286,3.66608571 24.8694286,1.76994286 20,1.76994286 M20,3.80608571 C28.9435714,3.80608571 36.1938571,11.0563714 36.1938571,19.9999429 C36.1938571,28.9436571 28.9435714,36.1939429 20,36.1939429 C11.0564286,36.1939429 3.80614286,28.9436571 3.80614286,19.9999429 C3.80614286,11.0563714 11.0564286,3.80608571 20,3.80608571" id="Fill-3" fill="#69ACE1"></path>
                            <path d="M20,0 C14.6577143,0 9.63528571,2.08042857 5.85785714,5.85785714 C2.08028571,9.63528571 0,14.6577143 0,20 C0,25.3422857 2.08028571,30.3647143 5.85785714,34.1421429 C9.63528571,37.9195714 14.6577143,40 20,40 C25.3422857,40 30.3647143,37.9195714 34.1421429,34.1421429 C37.9197143,30.3647143 40,25.3422857 40,20 C40,14.6577143 37.9197143,9.63528571 34.1421429,5.85785714 C30.3647143,2.08042857 25.3422857,0 20,0 M20,2.03614286 C29.9211429,2.03614286 37.9638571,10.0788571 37.9638571,20 C37.9638571,29.9211429 29.9211429,37.9638571 20,37.9638571 C10.0788571,37.9638571 2.03614286,29.9211429 2.03614286,20 C2.03614286,10.0788571 10.0788571,2.03614286 20,2.03614286" id="Fill-5" fill="#002660"></path>
                            <path d="M20,30.9276 C13.9744286,30.9276 9.07242857,26.0256 9.07242857,20.0000286 C9.07242857,13.9744571 13.9744286,9.07245714 20,9.07245714 C26.0255714,9.07245714 30.9275714,13.9744571 30.9275714,20.0000286 C30.9275714,26.0256 26.0255714,30.9276 20,30.9276" id="Fill-7" fill="#69ACE1"></path>
                            <path d="M20,8.05427143 C13.4131429,8.05427143 8.05428571,13.4131286 8.05428571,19.9999857 C8.05428571,26.5869857 13.4131429,31.9457 20,31.9457 C26.5868571,31.9457 31.9457143,26.5869857 31.9457143,19.9999857 C31.9457143,13.4131286 26.5868571,8.05427143 20,8.05427143 M20,10.0905571 C25.473,10.0905571 29.9094286,14.5271286 29.9094286,19.9999857 C29.9094286,25.4729857 25.473,29.9094143 20,29.9094143 C14.527,29.9094143 10.0905714,25.4729857 10.0905714,19.9999857 C10.0905714,14.5271286 14.527,10.0905571 20,10.0905571" id="Fill-9" fill="#002660"></path>
                            <path d="M19.8007857,30.6940571 C15.3785,29.3360571 12.2899286,24.7652 12.2899286,19.5786286 C12.2899286,18.3766286 12.5029286,13.9817714 12.9977857,12.5634857 L13.0467857,12.4233429 L13.1496429,12.3163429 C14.3147857,11.1062 17.8647857,10.6770571 20.5507857,10.6770571 C22.0195,10.6770571 25.5672143,10.8082 26.7867857,12.0246286 L26.8936429,12.1313429 L26.9452143,12.2729143 C27.4799286,13.7417714 27.7100714,18.3239143 27.7100714,19.5786286 C27.7100714,24.7652 24.6215,29.3360571 20.1992143,30.6940571 L20.0000714,30.7553429 L19.8007857,30.6940571 Z" id="Fill-11" fill="#FFFFFF"></path>
                            <path d="M20.5506429,9.99818571 C19.1170714,9.99818571 14.3110714,10.1314714 12.6607857,11.8457571 L12.4549286,12.0596143 L12.3570714,12.3399 C11.8057857,13.9191857 11.6112143,18.5403286 11.6112143,19.5786143 C11.6112143,22.2844714 12.3832143,24.8466143 13.8439286,26.9884714 C15.2827857,29.0980429 17.3275,30.6444714 19.6015,31.3429 L20.0000714,31.4653286 L20.3985,31.3429 C22.6726429,30.6444714 24.7172143,29.0980429 26.1560714,26.9884714 C27.6167857,24.8466143 28.3887857,22.2844714 28.3887857,19.5786143 C28.3887857,18.4950429 28.1786429,13.6763286 27.5830714,12.0407571 L27.4797857,11.7571857 L27.2660714,11.5440429 C25.9175,10.1990429 22.4797857,9.99818571 20.5506429,9.99818571 M20.5506429,11.3556143 C23.0977857,11.3556143 25.5290714,11.7287571 26.3075,12.5053286 C26.7729286,13.7834714 27.0313571,18.1084714 27.0313571,19.5786143 C27.0313571,24.5870429 24.0503571,28.8013286 20.0000714,30.0451857 C15.9496429,28.8013286 12.9686429,24.5870429 12.9686429,19.5786143 C12.9686429,18.1647571 13.2065,14.0256143 13.6386429,12.7870429 C14.5426429,11.8481857 17.6233571,11.3556143 20.5506429,11.3556143" id="Fill-13" fill="#FFC84C"></path>
                        </g>
                        <g id="Group-18" transform="translate(12.800000, 20.000000)">
                            <mask id="mask-2" fill="white">
                                <use xlink:href="#path-1"></use>
                            </mask>
                            <g id="Clip-17"></g>
                            <polygon id="Fill-16" fill="#69ACE1" mask="url(#mask-2)" points="-11.210256 18.3641714 26.601984 18.3641714 26.601984 0.143074286 -11.210256 0.143074286"></polygon>
                        </g>
                        <g id="Group-30">
                            <path d="M22.3557429,24.3438857 C22.3557429,25.6448857 21.3010286,26.6996 20.0000286,26.6996 C18.6988857,26.6996 17.6443143,25.6448857 17.6443143,24.3438857 C17.6443143,23.0428857 18.6988857,21.9881714 20.0000286,21.9881714 C21.3010286,21.9881714 22.3557429,23.0428857 22.3557429,24.3438857 Z" id="Fill-19" fill="#D80006"></path>
                            <path d="M20,22.6668571 C19.0751429,22.6668571 18.323,23.4191429 18.323,24.3438571 C18.323,25.2687143 19.0751429,26.021 20,26.021 C20.9248571,26.021 21.677,25.2687143 21.677,24.3438571 C21.677,23.4191429 20.9248571,22.6668571 20,22.6668571 M20,27.3784286 C18.3267143,27.3784286 16.9654286,26.0171429 16.9654286,24.3438571 C16.9654286,22.6705714 18.3267143,21.3092857 20,21.3092857 C21.6732857,21.3092857 23.0345714,22.6705714 23.0345714,24.3438571 C23.0345714,26.0171429 21.6732857,27.3784286 20,27.3784286" id="Fill-21" fill="#012660"></path>
                            <polygon id="Fill-23" fill="#FFC84C" points="23.3088714 19.1594571 16.4705857 19.1594571 15.6561571 17.3201714 24.1233 17.3201714"></polygon>
                            <mask id="mask-4" fill="white">
                                <use xlink:href="#path-3"></use>
                            </mask>
                            <g id="Clip-26"></g>
                            <polygon id="Fill-25" fill="#FFC84C" mask="url(#mask-4)" points="15.9277143 16.6062857 19.3891429 16.6062857 19.3891429 14.9774286 15.9277143 14.9774286"></polygon>
                            <polygon id="Fill-27" fill="#FFC84C" mask="url(#mask-4)" points="20.1611429 16.6062857 23.6227143 16.6062857 23.6227143 14.9774286 20.1611429 14.9774286"></polygon>
                            <polygon id="Fill-28" fill="#FFC84C" mask="url(#mask-4)" points="16.923 14.2987143 19.2447143 14.2987143 19.2447143 12.6697143 16.923 12.6697143"></polygon>
                            <polygon id="Fill-29" fill="#FFC84C" mask="url(#mask-4)" points="20.034 14.2987143 22.3557143 14.2987143 22.3557143 12.6697143 20.034 12.6697143"></polygon>
                        </g>
                    </g>
                </g>
            </g>
        </g>
    </g>
</svg>