<?xml version="1.0" encoding="UTF-8"?>
<svg width="30px" height="40px" viewBox="0 0 30 40" version="1.1" xmlns="http://www.w3.org/2000/svg" xmlns:xlink="http://www.w3.org/1999/xlink">
    <!-- Generator: Sketch 42 (36781) - http://www.bohemiancoding.com/sketch -->
    <title>monaco</title>
    <desc>Created with Sketch.</desc>
    <defs>
        <polygon id="path-1" points="0.0985714286 34 29.3302857 34 29.3302857 0.0704571429 0.0985714286 0.0704571429 0.0985714286 34"></polygon>
        <path d="M1.23042857,2.29485714 C0.488142857,4.32157143 0.0828571429,6.50814286 0.0828571429,8.78871429 C0.0828571429,16.3587143 4.54228571,22.8965714 11.0001429,25.9652857 C17.458,22.8965714 21.9174286,16.3587143 21.9174286,8.78871429 C21.9174286,6.50814286 21.5121429,4.32157143 20.7698571,2.29485714 C17.926,0.909142857 14.5807143,0.109571429 11.0001429,0.109571429 C7.41957143,0.109571429 4.07428571,0.909142857 1.23042857,2.29485714 Z" id="path-3"></path>
    </defs>
    <g id="Page-1" stroke="none" stroke-width="1" fill="none" fill-rule="evenodd">
        <g id="layout3-copy-3" transform="translate(-46.000000, -117.000000)">
            <g id="#1" transform="translate(40.000000, 42.000000)">
                <g id="monaco" transform="translate(6.000000, 75.000000)">
                    <g id="Page-1-Copy-2">
                        <g id="Group-8" transform="translate(0.000000, 1.714286)">
                            <path d="M14.7375857,14.6720143 L22.3931571,1.41244286 C19.9697286,0.504871429 17.3463,0.00744285714 14.6061571,0.00744285714 C11.9475857,0.00744285714 9.39844286,0.4753 7.03572857,1.33201429 L14.7375857,14.6720143 Z" id="Fill-1" fill="#B80000"></path>
                            <path d="M14.1512286,36.5654286 C10.3940857,34.7801429 7.21494286,31.9962857 4.9578,28.5148571 C2.63722857,24.9361429 1.4108,20.7861429 1.4108,16.5134286 C1.4108,13.9098571 1.8618,11.3582857 2.75108571,8.92971429 L2.93308571,8.433 L3.40851429,8.20128571 C6.80894286,6.54428571 10.7185143,5.66828571 14.7143714,5.66828571 C18.7103714,5.66828571 22.6199429,6.54428571 26.0203714,8.20128571 L26.4958,8.433 L26.6778,8.92971429 C27.5670857,11.3582857 28.0179429,13.9098571 28.0179429,16.5134286 C28.0179429,20.7861429 26.7915143,24.9361429 24.4710857,28.5148571 C22.2138,31.9962857 19.0348,34.7801429 15.2776571,36.5654286 L14.7143714,36.833 L14.1512286,36.5654286 Z" id="Fill-3" fill="#FFFFFF"></path>
                            <g id="Group-7" transform="translate(0.000000, 4.285714)">
                                <mask id="mask-2" fill="white">
                                    <use xlink:href="#path-1"></use>
                                </mask>
                                <g id="Clip-6"></g>
                                <path d="M14.7144286,0.0704571429 C10.5205714,0.0704571429 6.41228571,0.992171429 2.83371429,2.73588571 L1.88271429,3.19931429 L1.519,4.19274286 C0.576428571,6.76645714 0.0985714286,9.46974286 0.0985714286,12.2277429 C0.0985714286,16.7543143 1.39814286,21.1511714 3.85671429,24.9428857 C6.24642857,28.6283143 9.61142857,31.5751714 13.588,33.4648857 L14.7144286,34.0000286 L15.8408571,33.4648857 C19.8174286,31.5751714 23.1824286,28.6283143 25.5721429,24.9428857 C28.0307143,21.1511714 29.3302857,16.7543143 29.3302857,12.2277429 C29.3302857,9.46974286 28.8524286,6.76645714 27.9098571,4.19274286 L27.5461429,3.19931429 L26.5951429,2.73588571 C23.0165714,0.992171429 18.9082857,0.0704571429 14.7144286,0.0704571429 M14.7144286,2.69474286 C18.6472857,2.69474286 22.3218571,3.57302857 25.4455714,5.09517143 C26.2607143,7.32117143 26.7058571,9.72274286 26.7058571,12.2277429 C26.7058571,20.5427429 21.8077143,27.7238857 14.7144286,31.0944571 C7.62114286,27.7238857 2.723,20.5427429 2.723,12.2277429 C2.723,9.72274286 3.16814286,7.32117143 3.98328571,5.09517143 C7.107,3.57302857 10.7815714,2.69474286 14.7144286,2.69474286" id="Fill-5" fill="#D4AB24" mask="url(#mask-2)"></path>
                            </g>
                        </g>
                        <g id="Group-14" transform="translate(3.714286, 9.857143)">
                            <mask id="mask-4" fill="white">
                                <use xlink:href="#path-3"></use>
                            </mask>
                            <g id="Clip-10"></g>
                            <polygon id="Fill-9" fill="#B80000" mask="url(#mask-4)" points="-8.14285714 7.43228571 31.4282857 7.43228571 31.4282857 -3.71142857 -8.14285714 -3.71142857"></polygon>
                            <polygon id="Fill-11" fill="#B80000" mask="url(#mask-4)" points="8.048 29.0178571 13.9522857 29.0178571 13.9522857 8.55014286 8.048 8.55014286"></polygon>
                            <polygon id="Fill-12" fill="#B80000" mask="url(#mask-4)" points="-1.38185714 29.0178571 4.52242857 29.0178571 4.52242857 8.55014286 -1.38185714 8.55014286"></polygon>
                            <polygon id="Fill-13" fill="#B80000" mask="url(#mask-4)" points="17.4778571 29.0178571 23.3821429 29.0178571 23.3821429 8.55014286 17.4778571 8.55014286"></polygon>
                        </g>
                        <g id="Group-25" transform="translate(5.285714, 0.000000)">
                            <polygon id="Fill-15" fill="#D4AB24" points="7.98542857 8.66042857 10.6097143 8.66042857 10.6097143 0 7.98542857 0"></polygon>
                            <polygon id="Fill-17" fill="#D4AB24" points="2.97168571 8.83984286 0.0825428571 1.50584286 2.52411429 0.543985714 5.4134 7.87812857"></polygon>
                            <polygon id="Fill-18" fill="#D4AB24" points="15.6459286 8.83984286 13.2042143 7.87812857 16.0935 0.543985714 18.5352143 1.50584286"></polygon>
                            <polygon id="Fill-19" fill="#FFFFFF" points="1.81794286 15.2579571 1.80637143 13.2749571 3.11851429 13.2672429 3.13022857 15.2502429"></polygon>
                            <polygon id="Fill-20" fill="#FFFFFF" points="4.57352857 15.2614429 4.54452857 12.7057286 5.85652857 12.6907286 5.88581429 15.2465857"></polygon>
                            <polygon id="Fill-21" fill="#FFFFFF" points="7.3291 15.2571143 7.31567143 12.4148286 8.62795714 12.4088286 8.64138571 15.2509714"></polygon>
                            <polygon id="Fill-22" fill="#FFFFFF" points="11.3970429 15.2571143 10.0849 15.2509714 10.0981857 12.4088286 11.4104714 12.4148286"></polygon>
                            <polygon id="Fill-23" fill="#FFFFFF" points="14.1526286 15.2614429 12.8404857 15.2465857 12.8696286 12.6907286 14.1817714 12.7057286"></polygon>
                            <polygon id="Fill-24" fill="#FFFFFF" points="16.9082 15.2579571 15.5960571 15.2502429 15.6076286 13.2672429 16.9197714 13.2749571"></polygon>
                        </g>
                    </g>
                </g>
            </g>
        </g>
    </g>
</svg>