<?xml version="1.0" encoding="UTF-8"?>
<svg width="278px" height="278px" viewBox="0 0 278 278" version="1.1" xmlns="http://www.w3.org/2000/svg" xmlns:xlink="http://www.w3.org/1999/xlink">
    <!-- Generator: Sketch 43.2 (39069) - http://www.bohemiancoding.com/sketch -->
    <title>chi/chi</title>
    <desc>Created with Sketch.</desc>
    <defs></defs>
    <g id="Page-1" stroke="none" stroke-width="1" fill="none" fill-rule="evenodd">
        <g id="chi/chi">
            <g>
                <path d="M157.981418,138.730328 L250.824034,231.572944 L250.824034,209.019754 C263.624937,188.64951 271.053519,164.563214 271.053519,138.730328 C271.053519,112.897442 263.624937,88.8099738 250.824034,68.4409021 L250.824034,45.8877122 L157.981418,138.730328 Z" id="Fill-1" fill="#001F5F"></path>
                <path d="M167.039995,138.730328 L244.419008,216.109341 L244.419008,207.174632 L245.400805,205.612202 C257.992915,185.571569 264.648493,162.444784 264.648493,138.730328 C264.648493,115.0147 257.992915,91.8879148 245.400805,71.8472819 L244.419008,70.2848515 L244.419008,61.3513156 L167.039995,138.730328 Z M257.229295,247.038894 L148.921902,138.730328 L257.229295,30.4229359 L257.229295,66.6180667 C270.470071,88.3313916 277.45878,113.224708 277.45878,138.730328 C277.45878,164.235949 270.470071,189.128092 257.229295,210.841417 L257.229295,247.038894 Z" id="Fill-3" fill="#E20029"></path>
                <path d="M138.731149,119.480177 L231.572592,26.6375612 L209.019403,26.6375612 C188.649158,13.8366582 164.562862,6.40572996 138.729976,6.40572996 C112.89709,6.40572996 88.8107949,13.8366582 68.4405502,26.6375612 L45.8885333,26.6375612 L138.731149,119.480177 Z" id="Fill-5" fill="#001F5F"></path>
                <path d="M61.3513156,33.0416489 L138.730328,110.420662 L216.109341,33.0416489 L207.173459,33.0416489 L205.611029,32.0598515 C185.572742,19.4665688 162.445957,12.8109907 138.730328,12.8109907 C115.013527,12.8109907 91.8855688,19.4665688 71.8508008,32.0598515 L70.2871975,33.0416489 L61.3513156,33.0416489 Z M138.730328,128.538754 L30.4241089,20.231362 L66.6192397,20.231362 C88.3302186,6.99058565 113.223535,0.000703797468 138.730328,0.000703797468 C164.235949,0.000703797468 189.129265,6.99058565 210.840244,20.231362 L247.038894,20.231362 L138.730328,128.538754 Z" id="Fill-7" fill="#E20029"></path>
                <path d="M119.479825,138.730328 L26.6360363,45.8865392 L26.6360363,68.4409021 C13.8363063,88.8099738 6.40655105,112.897442 6.40655105,138.730328 C6.40655105,164.563214 13.8363063,188.64951 26.6360363,209.019754 L26.6360363,231.572944 L119.479825,138.730328 Z" id="Fill-9" fill="#001F5F"></path>
                <path d="M33.041297,61.3504945 L33.041297,70.2852034 L32.0594996,71.8476338 C19.4662169,91.8894397 12.8106388,115.017397 12.8106388,138.73068 C12.8106388,162.44279 19.4662169,185.569575 32.0594996,205.611381 L33.041297,207.173811 L33.041297,216.109693 L110.42031,138.73068 L33.041297,61.3504945 Z M20.2310101,247.039246 L20.2310101,210.840596 C6.99023376,189.126098 0.000351898734,164.235127 0.000351898734,138.73068 C0.000351898734,113.227406 6.99023376,88.3340895 20.2310101,66.6184186 L20.2310101,30.4209418 L128.538403,138.73068 L20.2310101,247.039246 Z" id="Fill-11" fill="#E20029"></path>
                <path d="M138.731149,157.980479 L45.8873603,250.824268 L68.4405502,250.824268 C88.8107949,263.623998 112.89709,271.053754 138.729976,271.053754 C164.562862,271.053754 188.649158,263.623998 209.019403,250.824268 L231.573765,250.824268 L138.731149,157.980479 Z" id="Fill-13" fill="#001F5F"></path>
                <path d="M61.3513156,244.419125 L70.2871975,244.419125 L71.8496278,245.400922 C91.8879148,257.993032 115.0147,264.64861 138.730328,264.64861 C162.444784,264.64861 185.570396,257.993032 205.611029,245.400922 L207.173459,244.419125 L216.109341,244.419125 L138.730328,167.040112 L61.3513156,244.419125 Z M138.730328,277.458897 C113.223535,277.458897 88.3313916,270.470188 66.6192397,257.229412 L30.4229359,257.229412 L138.730328,148.922019 L247.038894,257.229412 L210.840244,257.229412 C189.128092,270.470188 164.235949,277.458897 138.730328,277.458897 L138.730328,277.458897 Z" id="Fill-15" fill="#E20029"></path>
                <polygon id="Fill-17" fill="#FFFFFF" points="138.730094 42.8172785 162.7073 97.1985359 221.792271 90.774038 186.686853 138.730797 221.792271 186.686384 162.7073 180.261886 138.730094 234.643143 114.751714 180.261886 55.6667435 186.686384 90.7733342 138.730797 55.6667435 90.774038 114.751714 97.1985359"></polygon>
                <path d="M212.626482,137.025848 C212.626482,178.298878 179.169123,211.755063 137.897267,211.755063 C96.6242371,211.755063 63.1680515,178.298878 63.1680515,137.025848 C63.1680515,95.7539916 96.6242371,62.2966329 137.897267,62.2966329 C179.169123,62.2966329 212.626482,95.7539916 212.626482,137.025848" id="Fill-19" fill="#A7A9AC"></path>
                <path d="M137.897267,70.3025637 C101.105081,70.3025637 71.1737477,100.23507 71.1737477,137.026083 C71.1737477,173.818268 101.105081,203.749602 137.897267,203.749602 C174.688279,203.749602 204.619613,173.818268 204.619613,137.026083 C204.619613,100.23507 174.688279,70.3025637 137.897267,70.3025637 M137.897267,219.762167 C92.2747688,219.762167 55.1600093,182.646235 55.1600093,137.026083 C55.1600093,91.4047578 92.2747688,54.2899983 137.897267,54.2899983 C183.518592,54.2899983 220.633351,91.4047578 220.633351,137.026083 C220.633351,182.646235 183.518592,219.762167 137.897267,219.762167" id="Fill-21" fill="#FFFFFF"></path>
                <path d="M139.150495,183.961749 C114.209086,183.961749 93.9174321,163.671268 93.9174321,138.729859 C93.9174321,113.789623 114.209086,93.4979688 139.150495,93.4979688 C155.712023,93.4979688 170.93047,102.534728 178.869305,117.082222 L157.787052,128.589311 C154.059272,121.760129 146.918073,117.517403 139.150495,117.517403 C127.453381,117.517403 117.93804,127.033918 117.93804,138.729859 C117.93804,150.4258 127.453381,159.941142 139.150495,159.941142 C146.918073,159.941142 154.059272,155.699589 157.787052,148.870408 L178.869305,160.379842 C170.93047,174.92499 155.712023,183.961749 139.150495,183.961749" id="Fill-23" fill="#E20029"></path>
            </g>
        </g>
    </g>
</svg>