<?xml version="1.0" encoding="utf-8"?>
<!-- Generator: Adobe Illustrator 21.0.2, SVG Export Plug-In . SVG Version: 6.00 Build 0)  -->
<!DOCTYPE svg PUBLIC "-//W3C//DTD SVG 1.1//EN" "http://www.w3.org/Graphics/SVG/1.1/DTD/svg11.dtd">
<svg version="1.1" id="Layer_1" xmlns="http://www.w3.org/2000/svg" xmlns:xlink="http://www.w3.org/1999/xlink" x="0px" y="0px"
	 viewBox="0 0 1535 1013" style="enable-background:new 0 0 1535 1013;" xml:space="preserve">
<style type="text/css">
	.st0{fill:none;stroke:#E0E0E0;}
</style>
<g>
	<path class="st0" d="M62.4,975.2h1405.2v-945H62.4L62.4,975.2z"/>
	<path class="st0" d="M764.9,975.1V30.6"/>
	<circle class="st0" cx="764.9" cy="502.8" r="120.5"/>
	<circle class="st0" cx="764.9" cy="502.8" r="4.4"/>
	<g id="a">
		<path class="st0" d="M78.8,978.1c0-10.7-8.8-19.4-19.6-19.4 M280.9,601.3c54.4-38.6,67.3-114,28.7-168.4
			c-7.9-11.1-17.6-20.8-28.7-28.7 M61.8,236.3h219.2v532.8l-219.2-0.4 M62.2,551.8H27.9l0-98.1h34.3 M61.8,625h75.7V380.4H61.8
			 M78.7,27.4c0,10.8-8.8,19.4-19.6,19.4"/>
		<circle class="st0" cx="210.6" cy="502.8" r="4.4"/>
	</g>
	<g transform="scale(1,-1)">
		<g id="a_1_">
			<path class="st0" d="M1451.1,978.1c0-10.7,8.8-19.4,19.6-19.4 M1248.9,601.3c-54.4-38.6-67.3-114-28.7-168.4
				c7.9-11.1,17.6-20.8,28.7-28.7 M1468.1,236.3h-219.2v532.8l219.2-0.4 M1467.6,551.8h34.3l0-98.1h-34.3 M1468.1,625h-75.7V380.4
				h75.7 M1451.1,27.4c0,10.8,8.8,19.4,19.6,19.4"/>
			<circle class="st0" cx="1319.2" cy="502.8" r="4.4"/>
		</g>
	</g>
</g>
</svg>
