<?xml version="1.0" encoding="UTF-8"?>
<svg width="278px" height="278px" viewBox="0 0 278 278" version="1.1" xmlns="http://www.w3.org/2000/svg" xmlns:xlink="http://www.w3.org/1999/xlink">
    <!-- Generator: Sketch 43.2 (39069) - http://www.bohemiancoding.com/sketch -->
    <title>spo/spo</title>
    <desc>Created with Sketch.</desc>
    <defs>
        <polygon id="path-1" points="256.899495 277 0.266909286 277 0.266909286 0.000494642857 256.899495 0.000494642857"></polygon>
        <path d="M0.576614731,0.00296785714 C0.371258302,3.45927187 0.267107143,6.94285214 0.267107143,10.4508143 C0.267107143,32.1921065 4.26403797,52.9989643 11.5631195,72.1772973 L245.603485,72.1772964 C252.902689,52.9989643 256.899693,32.1921065 256.899693,10.4508143 C256.899693,6.94259478 256.794941,3.45904214 256.588553,0.00296785714 L0.576614731,0.00296785714 L0.576614731,0.00296785714 Z" id="path-3"></path>
        <polygon id="path-5" points="0 277 326.026032 277 326.026032 0 0 0"></polygon>
    </defs>
    <g id="Page-1" stroke="none" stroke-width="1" fill="none" fill-rule="evenodd">
        <g id="spo/spo">
            <g transform="translate(-24.000000, 1.000000)">
                <g id="Group-3" transform="translate(34.625000, 0.000000)">
                    <mask id="mask-2" fill="white">
                        <use xlink:href="#path-1"></use>
                    </mask>
                    <g id="Clip-2"></g>
                    <path d="M256.899495,109.37988 C256.899495,85.8348804 252.180602,63.4018375 243.688574,42.9305482 C213.153281,16.2030161 173.174266,0.000494642857 129.406288,0.000494642857 C84.3720236,0.000494642857 43.3453557,17.1497625 12.4944807,45.2721875 C4.60690571,65.1053875 0.266909286,86.7341411 0.266909286,109.37988 C0.266909286,189.588198 54.6677307,257.080238 128.583202,277.000495 C202.497684,257.080238 256.899495,189.588198 256.899495,109.37988" id="Fill-1" fill="#176E45" mask="url(#mask-2)"></path>
                </g>
                <g id="Group-8" transform="translate(34.625000, 98.928571)">
                    <mask id="mask-4" fill="white">
                        <use xlink:href="#path-3"></use>
                    </mask>
                    <g id="Clip-5"></g>
                    <polygon id="Fill-4" fill="#FFFFFF" mask="url(#mask-4)" points="-34.625 72.1772964 291.402021 72.1772964 291.402021 0.00296785714 -34.625 0.00296785714"></polygon>
                    <polygon id="Fill-6" fill="#176E45" mask="url(#mask-4)" points="1.23067143 28.8930786 257.863257 28.8930786 257.863257 15.3913071 1.23067143 15.3913071"></polygon>
                    <polygon id="Fill-7" fill="#176E45" mask="url(#mask-4)" points="1.23067143 56.8868964 257.863257 56.8868964 257.863257 43.385125 1.23067143 43.385125"></polygon>
                </g>
                <g id="Group-15">
                    <path d="M238.327239,121.452233 C238.327239,168.408679 206.479164,207.918772 163.207806,219.579483 C119.937439,207.918772 88.0893636,168.408679 88.0893636,121.452233 C88.0893636,108.195804 90.6298493,95.5339364 95.247835,83.92269 C113.308235,67.4599864 137.326114,57.4197257 163.690578,57.4197257 C189.313078,57.4197257 212.71661,66.9049971 230.593003,82.5525293 C235.565153,94.5367364 238.327239,107.668515 238.327239,121.452233 Z" id="Fill-9" fill="#176E45"></path>
                    <path d="M101.294745,88.10539 C97.2762664,98.7501043 95.2393271,109.959701 95.2393271,121.452233 C95.2393271,163.436529 123.089699,200.457579 163.208202,212.155883 C203.326706,200.457579 231.177077,163.436529 231.177077,121.452233 C231.177077,109.51749 228.97097,97.8815114 224.616134,86.8420721 C207.592506,72.4677507 186.023109,64.5692936 163.689984,64.5692936 C140.641606,64.5692936 118.550856,72.9149079 101.294745,88.10539 L101.294745,88.10539 Z M163.208202,226.986265 L161.347356,226.484697 C114.004099,213.723901 80.9392021,170.533665 80.9392021,121.452233 C80.9392021,107.586404 83.51827,94.0707829 88.6031986,81.2812971 L89.2116093,79.7488936 L90.4313986,78.638915 C110.502027,60.3440543 136.518263,50.2691686 163.689984,50.2691686 C190.048513,50.2691686 215.482059,59.82369 235.302399,77.170815 L236.557802,78.2709007 L237.196881,79.8122079 C242.691374,93.056765 245.477202,107.06604 245.477202,121.452233 C245.477202,170.533665 212.412306,213.723901 165.068059,226.484697 L163.208202,226.986265 Z" id="Fill-11" fill="#FFFFFF"></path>
                    <mask id="mask-6" fill="white">
                        <use xlink:href="#path-5"></use>
                    </mask>
                    <g id="Clip-14"></g>
                    <polygon id="Fill-13" fill="#F1BA2C" mask="url(#mask-6)" points="149.137789 176.10275 176.889232 176.10275 176.889232 89.6698464 149.137789 89.6698464"></polygon>
                </g>
            </g>
        </g>
    </g>
</svg>