<?xml version="1.0" encoding="UTF-8"?>
<svg width="21px" height="21px" viewBox="0 0 21 21" version="1.1" xmlns="http://www.w3.org/2000/svg" xmlns:xlink="http://www.w3.org/1999/xlink">
    <!-- Generator: Sketch 43.2 (39069) - http://www.bohemiancoding.com/sketch -->
    <title>Group</title>
    <desc>Created with Sketch.</desc>
    <defs></defs>
    <g id="Page-1" stroke="none" stroke-width="1" fill="none" fill-rule="evenodd">
        <g id="layout3-copy-6" transform="translate(-38.000000, -579.000000)" fill="#FFFFFF">
            <g id="Group-4-Copy" transform="translate(23.000000, 569.000000)">
                <g id="Group" transform="translate(15.000000, 10.000000)">
                    <path d="M10.4999667,2.44913581 C6.0608312,2.44913581 2.44913912,6.06059144 2.44913912,10.4997334 C2.44913912,14.9393419 6.0608312,18.5509308 10.4999667,18.5509308 C14.9391021,18.5509308 18.5507942,14.9393419 18.5507942,10.4997334 C18.5507942,6.06059144 14.9391021,2.44913581 10.4999667,2.44913581 Z M10.4999667,21 C4.70999572,21 0,16.2894723 0,10.4997334 C0,4.70992783 4.70999572,0 10.4999667,0 C16.2899376,0 21,4.70992783 21,10.4997334 C21,16.2894723 16.2899376,21 10.4999667,21 Z" id="Fill-1"></path>
                    <path d="M13.9380531,5.9126075 C13.4386488,5.52732443 12.8755257,5.22223454 12.2648278,5.01769912 L5.01769912,12.2648031 C5.22236331,12.87551 5.52725101,13.4386414 5.91259428,13.9380531 L13.9380531,5.9126075 Z" id="Fill-12"></path>
                    <path d="M13.9380531,8.35042536 L16.3422779,10.7787611 C16.3454213,10.7003971 16.3539823,10.6233843 16.3539823,10.5442773 C16.3539823,9.23877496 15.9270714,8.03696969 15.2137697,7.0619469 L13.9380531,8.35042536 Z" id="Fill-13"></path>
                    <path d="M4.6460177,10.5929204 L10.5929204,4.6460177 C7.31384684,4.65989917 4.65989868,7.31414549 4.6460177,10.5929204" id="Fill-14"></path>
                    <path d="M12.8341466,9.47787611 L11.5221239,10.7439382 L15.0248461,14.1238938 C15.4316634,13.6479673 15.7533063,13.1037542 15.9823009,12.5157494 L12.8341466,9.47787611 Z" id="Fill-15"></path>
                    <path d="M8.06572179,14.1238938 L7.0619469,15.0758879 C7.95702929,15.7032794 9.04155111,16.0972955 10.2212389,16.1681416 L8.06572179,14.1238938 Z" id="Fill-16"></path>
                    <path d="M10.5694772,11.8938053 L9.2920354,13.194847 L12.2116121,16.1681416 C12.8381394,15.9862748 13.4196947,15.6988532 13.9380531,15.3244374 L10.5694772,11.8938053 Z" id="Fill-17"></path>
                </g>
            </g>
        </g>
    </g>
</svg>