<?xml version="1.0" encoding="utf-8"?>
<!-- Generator: Adobe Illustrator 21.1.0, SVG Export Plug-In . SVG Version: 6.00 Build 0)  -->
<svg version="1.1" id="Layer_1" xmlns="http://www.w3.org/2000/svg" xmlns:xlink="http://www.w3.org/1999/xlink" x="0px" y="0px"
	 viewBox="0 0 21 21" style="enable-background:new 0 0 21 21;" xml:space="preserve">
<path d="M10.5,0C4.7,0,0,4.7,0,10.5S4.7,21,10.5,21S21,16.3,21,10.5S16.3,0,10.5,0z M18.8,10.5c0,1.8-0.6,3.5-1.6,4.9L5.6,3.8
	c1.4-1,3.1-1.6,4.9-1.6C15.1,2.2,18.8,5.9,18.8,10.5z M2.2,10.5c0-1.8,0.6-3.5,1.5-4.8l11.6,11.6c-1.4,1-3,1.5-4.8,1.5
	C5.9,18.8,2.2,15.1,2.2,10.5z"/>
</svg>
